<svg width="1200" height="800" viewBox="0 0 1200 800" fill="none" xmlns="http://www.w3.org/2000/svg">
  <rect width="1200" height="800" rx="32" fill="#F4F7FA"/>
  <rect x="72" y="72" width="1056" height="656" rx="28" fill="#E8EEF5"/>
  <rect x="168" y="134" width="380" height="532" rx="42" fill="#223447"/>
  <rect x="212" y="184" width="292" height="188" rx="24" fill="#DDE6F0"/>
  <rect x="232" y="208" width="252" height="140" rx="16" fill="#FFFFFF"/>
  <rect x="214" y="414" width="288" height="208" rx="28" fill="#31485D"/>
  <circle cx="286" cy="486" r="28" fill="#F77F34"/>
  <circle cx="382" cy="486" r="28" fill="#F77F34"/>
  <rect x="620" y="164" width="396" height="28" rx="14" fill="#223447"/>
  <rect x="620" y="216" width="286" height="18" rx="9" fill="#6E8091"/>
  <rect x="620" y="296" width="396" height="108" rx="24" fill="#FFFFFF"/>
  <rect x="652" y="330" width="144" height="14" rx="7" fill="#223447"/>
  <rect x="652" y="358" width="236" height="10" rx="5" fill="#7A8C9D"/>
  <rect x="620" y="440" width="396" height="152" rx="24" fill="#FFFFFF"/>
  <rect x="652" y="478" width="136" height="12" rx="6" fill="#223447"/>
  <rect x="652" y="504" width="228" height="10" rx="5" fill="#7A8C9D"/>
</svg>
