<svg width="1200" height="800" viewBox="0 0 1200 800" fill="none" xmlns="http://www.w3.org/2000/svg">
  <rect width="1200" height="800" rx="32" fill="#F4F7FB"/>
  <rect x="72" y="72" width="1056" height="656" rx="28" fill="url(#bg)"/>
  <rect x="160" y="170" width="420" height="420" rx="36" fill="#223447"/>
  <rect x="216" y="226" width="308" height="308" rx="24" fill="#31485D"/>
  <circle cx="370" cy="380" r="96" fill="#F77F34" fill-opacity="0.18"/>
  <circle cx="370" cy="380" r="58" fill="#F77F34"/>
  <rect x="628" y="188" width="340" height="28" rx="14" fill="#223447"/>
  <rect x="628" y="240" width="292" height="18" rx="9" fill="#5D7184"/>
  <rect x="628" y="300" width="420" height="92" rx="20" fill="#FFFFFF" fill-opacity="0.84"/>
  <rect x="652" y="326" width="170" height="14" rx="7" fill="#223447"/>
  <rect x="652" y="352" width="246" height="10" rx="5" fill="#7B8B9A"/>
  <rect x="628" y="424" width="196" height="128" rx="24" fill="#FFFFFF" fill-opacity="0.88"/>
  <rect x="648" y="452" width="112" height="12" rx="6" fill="#223447"/>
  <rect x="648" y="476" width="144" height="10" rx="5" fill="#7B8B9A"/>
  <rect x="852" y="424" width="196" height="128" rx="24" fill="#FFFFFF" fill-opacity="0.88"/>
  <rect x="872" y="452" width="112" height="12" rx="6" fill="#223447"/>
  <rect x="872" y="476" width="144" height="10" rx="5" fill="#7B8B9A"/>
  <rect x="628" y="584" width="420" height="22" rx="11" fill="#223447" fill-opacity="0.14"/>
  <defs>
    <linearGradient id="bg" x1="72" y1="72" x2="1128" y2="728" gradientUnits="userSpaceOnUse">
      <stop stop-color="#E7EDF5"/>
      <stop offset="1" stop-color="#D8E1ED"/>
    </linearGradient>
  </defs>
</svg>
